<svg width="18" height="18" viewBox="0 0 18 18" fill="none" xmlns="http://www.w3.org/2000/svg">
<path d="M11.6265 3.36458L14.6355 6.3735M12.8473 2.12673C13.046 1.92804 13.2819 1.77043 13.5415 1.6629C13.8011 1.55537 14.0793 1.50003 14.3603 1.50003C14.6413 1.50003 14.9195 1.55537 15.1791 1.6629C15.4387 1.77043 15.6746 1.92804 15.8733 2.12673C16.072 2.32541 16.2296 2.56129 16.3371 2.82089C16.4447 3.08049 16.5 3.35872 16.5 3.63971C16.5 3.92069 16.4447 4.19893 16.3371 4.45852C16.2296 4.71812 16.072 4.954 15.8733 5.15269L5.66069 15.3653L1.5 16.5L2.63473 12.3393L12.8473 2.12673Z" stroke="#313131" stroke-width="1.5" stroke-linecap="round" stroke-linejoin="round"/>
</svg>
